<svg width="276" height="373" viewBox="0 0 276 373" fill="none" xmlns="http://www.w3.org/2000/svg">
<path d="M275 362L275 372L246.5 372" stroke="#FFA99E" stroke-linecap="square"/>
<path d="M221.5 369H272V358" stroke="#FFA99E"/>
<g filter="url(#filter0_d_121_610)">
<circle cx="131.5" cy="95" r="95" fill="#D9D9D9"/>
</g>
<path d="M1 175.5L1 126L14 126" stroke="#6BEEFF" stroke-width="1.2" stroke-linecap="square"/>
<g filter="url(#filter1_d_121_610)">
<path fill-rule="evenodd" clip-rule="evenodd" d="M227.337 130H254.592L268 143.408V365H37.0015L5 332.999V130H35.6634C49.9442 169.093 87.4631 197 131.5 197C175.537 197 213.056 169.093 227.337 130Z" fill="url(#paint0_linear_121_610)"/>
</g>
<line x1="141" y1="284" x2="133" y2="284" stroke="#1D1D1D" stroke-opacity="0.4" stroke-width="2" stroke-linecap="square"/>
<path d="M57.18 232H53.418L47.126 222.474V232H43.364V216.556H47.126L53.418 226.126V216.556H57.18V232ZM60.259 225.84C60.259 224.579 60.4936 223.471 60.963 222.518C61.447 221.565 62.0996 220.831 62.921 220.318C63.7423 219.805 64.659 219.548 65.671 219.548C66.5363 219.548 67.2916 219.724 67.937 220.076C68.597 220.428 69.103 220.89 69.455 221.462V219.724H73.217V232H69.455V230.262C69.0883 230.834 68.575 231.296 67.915 231.648C67.2696 232 66.5143 232.176 65.649 232.176C64.6516 232.176 63.7423 231.919 62.921 231.406C62.0996 230.878 61.447 230.137 60.963 229.184C60.4936 228.216 60.259 227.101 60.259 225.84ZM69.455 225.862C69.455 224.923 69.191 224.183 68.663 223.64C68.1496 223.097 67.519 222.826 66.771 222.826C66.023 222.826 65.385 223.097 64.857 223.64C64.3436 224.168 64.087 224.901 64.087 225.84C64.087 226.779 64.3436 227.527 64.857 228.084C65.385 228.627 66.023 228.898 66.771 228.898C67.519 228.898 68.1496 228.627 68.663 228.084C69.191 227.541 69.455 226.801 69.455 225.862ZM92.7026 219.592C94.2279 219.592 95.4379 220.054 96.3326 220.978C97.2419 221.902 97.6966 223.185 97.6966 224.828V232H93.9566V225.334C93.9566 224.542 93.7439 223.933 93.3186 223.508C92.9079 223.068 92.3359 222.848 91.6026 222.848C90.8693 222.848 90.2899 223.068 89.8646 223.508C89.4539 223.933 89.2486 224.542 89.2486 225.334V232H85.5086V225.334C85.5086 224.542 85.2959 223.933 84.8706 223.508C84.4599 223.068 83.8879 222.848 83.1546 222.848C82.4213 222.848 81.8419 223.068 81.4166 223.508C81.0059 223.933 80.8006 224.542 80.8006 225.334V232H77.0386V219.724H80.8006V221.264C81.1819 220.751 81.6806 220.347 82.2966 220.054C82.9126 219.746 83.6093 219.592 84.3866 219.592C85.3106 219.592 86.1319 219.79 86.8506 220.186C87.5839 220.582 88.1559 221.147 88.5666 221.88C88.9919 221.205 89.5713 220.655 90.3046 220.23C91.0379 219.805 91.8373 219.592 92.7026 219.592ZM113 225.664C113 226.016 112.978 226.383 112.934 226.764H104.42C104.478 227.527 104.72 228.113 105.146 228.524C105.586 228.92 106.121 229.118 106.752 229.118C107.69 229.118 108.343 228.722 108.71 227.93H112.714C112.508 228.737 112.134 229.463 111.592 230.108C111.064 230.753 110.396 231.259 109.59 231.626C108.783 231.993 107.881 232.176 106.884 232.176C105.681 232.176 104.61 231.919 103.672 231.406C102.733 230.893 102 230.159 101.472 229.206C100.944 228.253 100.68 227.138 100.68 225.862C100.68 224.586 100.936 223.471 101.45 222.518C101.978 221.565 102.711 220.831 103.65 220.318C104.588 219.805 105.666 219.548 106.884 219.548C108.072 219.548 109.128 219.797 110.052 220.296C110.976 220.795 111.694 221.506 112.208 222.43C112.736 223.354 113 224.432 113 225.664ZM109.15 224.674C109.15 224.029 108.93 223.515 108.49 223.134C108.05 222.753 107.5 222.562 106.84 222.562C106.209 222.562 105.674 222.745 105.234 223.112C104.808 223.479 104.544 223.999 104.442 224.674H109.15ZM127.434 232.154C126.305 232.154 125.293 231.971 124.398 231.604C123.504 231.237 122.785 230.695 122.242 229.976C121.714 229.257 121.436 228.392 121.406 227.38H125.41C125.469 227.952 125.667 228.392 126.004 228.7C126.342 228.993 126.782 229.14 127.324 229.14C127.882 229.14 128.322 229.015 128.644 228.766C128.967 228.502 129.128 228.143 129.128 227.688C129.128 227.307 128.996 226.991 128.732 226.742C128.483 226.493 128.168 226.287 127.786 226.126C127.42 225.965 126.892 225.781 126.202 225.576C125.205 225.268 124.391 224.96 123.76 224.652C123.13 224.344 122.587 223.889 122.132 223.288C121.678 222.687 121.45 221.902 121.45 220.934C121.45 219.497 121.971 218.375 123.012 217.568C124.054 216.747 125.41 216.336 127.082 216.336C128.784 216.336 130.155 216.747 131.196 217.568C132.238 218.375 132.795 219.504 132.868 220.956H128.798C128.769 220.457 128.586 220.069 128.248 219.79C127.911 219.497 127.478 219.35 126.95 219.35C126.496 219.35 126.129 219.475 125.85 219.724C125.572 219.959 125.432 220.303 125.432 220.758C125.432 221.257 125.667 221.645 126.136 221.924C126.606 222.203 127.339 222.503 128.336 222.826C129.334 223.163 130.14 223.486 130.756 223.794C131.387 224.102 131.93 224.549 132.384 225.136C132.839 225.723 133.066 226.478 133.066 227.402C133.066 228.282 132.839 229.081 132.384 229.8C131.944 230.519 131.299 231.091 130.448 231.516C129.598 231.941 128.593 232.154 127.434 232.154ZM148.604 219.724V232H144.842V230.328C144.46 230.871 143.94 231.311 143.28 231.648C142.634 231.971 141.916 232.132 141.124 232.132C140.185 232.132 139.356 231.927 138.638 231.516C137.919 231.091 137.362 230.482 136.966 229.69C136.57 228.898 136.372 227.967 136.372 226.896V219.724H140.112V226.39C140.112 227.211 140.324 227.849 140.75 228.304C141.175 228.759 141.747 228.986 142.466 228.986C143.199 228.986 143.778 228.759 144.204 228.304C144.629 227.849 144.842 227.211 144.842 226.39V219.724H148.604ZM156.168 221.77C156.608 221.095 157.158 220.567 157.818 220.186C158.478 219.79 159.211 219.592 160.018 219.592V223.574H158.984C158.045 223.574 157.341 223.779 156.872 224.19C156.402 224.586 156.168 225.29 156.168 226.302V232H152.406V219.724H156.168V221.77ZM170.396 219.592C171.833 219.592 172.977 220.061 173.828 221C174.693 221.924 175.126 223.2 175.126 224.828V232H171.386V225.334C171.386 224.513 171.173 223.875 170.748 223.42C170.323 222.965 169.751 222.738 169.032 222.738C168.313 222.738 167.741 222.965 167.316 223.42C166.891 223.875 166.678 224.513 166.678 225.334V232H162.916V219.724H166.678V221.352C167.059 220.809 167.573 220.384 168.218 220.076C168.863 219.753 169.589 219.592 170.396 219.592ZM178.092 225.84C178.092 224.579 178.327 223.471 178.796 222.518C179.28 221.565 179.933 220.831 180.754 220.318C181.575 219.805 182.492 219.548 183.504 219.548C184.369 219.548 185.125 219.724 185.77 220.076C186.43 220.428 186.936 220.89 187.288 221.462V219.724H191.05V232H187.288V230.262C186.921 230.834 186.408 231.296 185.748 231.648C185.103 232 184.347 232.176 183.482 232.176C182.485 232.176 181.575 231.919 180.754 231.406C179.933 230.878 179.28 230.137 178.796 229.184C178.327 228.216 178.092 227.101 178.092 225.84ZM187.288 225.862C187.288 224.923 187.024 224.183 186.496 223.64C185.983 223.097 185.352 222.826 184.604 222.826C183.856 222.826 183.218 223.097 182.69 223.64C182.177 224.168 181.92 224.901 181.92 225.84C181.92 226.779 182.177 227.527 182.69 228.084C183.218 228.627 183.856 228.898 184.604 228.898C185.352 228.898 185.983 228.627 186.496 228.084C187.024 227.541 187.288 226.801 187.288 225.862ZM210.536 219.592C212.061 219.592 213.271 220.054 214.166 220.978C215.075 221.902 215.53 223.185 215.53 224.828V232H211.79V225.334C211.79 224.542 211.577 223.933 211.152 223.508C210.741 223.068 210.169 222.848 209.436 222.848C208.702 222.848 208.123 223.068 207.698 223.508C207.287 223.933 207.082 224.542 207.082 225.334V232H203.342V225.334C203.342 224.542 203.129 223.933 202.704 223.508C202.293 223.068 201.721 222.848 200.988 222.848C200.254 222.848 199.675 223.068 199.25 223.508C198.839 223.933 198.634 224.542 198.634 225.334V232H194.872V219.724H198.634V221.264C199.015 220.751 199.514 220.347 200.13 220.054C200.746 219.746 201.442 219.592 202.22 219.592C203.144 219.592 203.965 219.79 204.684 220.186C205.417 220.582 205.989 221.147 206.4 221.88C206.825 221.205 207.404 220.655 208.138 220.23C208.871 219.805 209.67 219.592 210.536 219.592ZM230.833 225.664C230.833 226.016 230.811 226.383 230.767 226.764H222.253C222.312 227.527 222.554 228.113 222.979 228.524C223.419 228.92 223.954 229.118 224.585 229.118C225.524 229.118 226.176 228.722 226.543 227.93H230.547C230.342 228.737 229.968 229.463 229.425 230.108C228.897 230.753 228.23 231.259 227.423 231.626C226.616 231.993 225.714 232.176 224.717 232.176C223.514 232.176 222.444 231.919 221.505 231.406C220.566 230.893 219.833 230.159 219.305 229.206C218.777 228.253 218.513 227.138 218.513 225.862C218.513 224.586 218.77 223.471 219.283 222.518C219.811 221.565 220.544 220.831 221.483 220.318C222.422 219.805 223.5 219.548 224.717 219.548C225.905 219.548 226.961 219.797 227.885 220.296C228.809 220.795 229.528 221.506 230.041 222.43C230.569 223.354 230.833 224.432 230.833 225.664ZM226.983 224.674C226.983 224.029 226.763 223.515 226.323 223.134C225.883 222.753 225.333 222.562 224.673 222.562C224.042 222.562 223.507 222.745 223.067 223.112C222.642 223.479 222.378 223.999 222.275 224.674H226.983Z" fill="#1D1D1D"/>
<path d="M97.992 258L95.004 252.87H93.024V258H91.386V245.454H95.436C96.384 245.454 97.182 245.616 97.83 245.94C98.49 246.264 98.982 246.702 99.306 247.254C99.63 247.806 99.792 248.436 99.792 249.144C99.792 250.008 99.54 250.77 99.036 251.43C98.544 252.09 97.8 252.528 96.804 252.744L99.954 258H97.992ZM93.024 251.556H95.436C96.324 251.556 96.99 251.34 97.434 250.908C97.878 250.464 98.1 249.876 98.1 249.144C98.1 248.4 97.878 247.824 97.434 247.416C97.002 247.008 96.336 246.804 95.436 246.804H93.024V251.556ZM107.899 258.162C106.975 258.162 106.135 257.952 105.379 257.532C104.635 257.112 104.047 256.518 103.615 255.75C103.195 254.97 102.985 254.07 102.985 253.05C102.985 252.042 103.201 251.154 103.633 250.386C104.077 249.606 104.677 249.012 105.433 248.604C106.189 248.184 107.035 247.974 107.971 247.974C108.907 247.974 109.753 248.184 110.509 248.604C111.265 249.012 111.859 249.6 112.291 250.368C112.735 251.136 112.957 252.03 112.957 253.05C112.957 254.07 112.729 254.97 112.273 255.75C111.829 256.518 111.223 257.112 110.455 257.532C109.687 257.952 108.835 258.162 107.899 258.162ZM107.899 256.722C108.487 256.722 109.039 256.584 109.555 256.308C110.071 256.032 110.485 255.618 110.797 255.066C111.121 254.514 111.283 253.842 111.283 253.05C111.283 252.258 111.127 251.586 110.815 251.034C110.503 250.482 110.095 250.074 109.591 249.81C109.087 249.534 108.541 249.396 107.953 249.396C107.353 249.396 106.801 249.534 106.297 249.81C105.805 250.074 105.409 250.482 105.109 251.034C104.809 251.586 104.659 252.258 104.659 253.05C104.659 253.854 104.803 254.532 105.091 255.084C105.391 255.636 105.787 256.05 106.279 256.326C106.771 256.59 107.311 256.722 107.899 256.722ZM118.009 244.68V258H116.371V244.68H118.009ZM131.061 252.69C131.061 253.002 131.043 253.332 131.007 253.68H123.123C123.183 254.652 123.513 255.414 124.113 255.966C124.725 256.506 125.463 256.776 126.327 256.776C127.035 256.776 127.623 256.614 128.091 256.29C128.571 255.954 128.907 255.51 129.099 254.958H130.863C130.599 255.906 130.071 256.68 129.279 257.28C128.487 257.868 127.503 258.162 126.327 258.162C125.391 258.162 124.551 257.952 123.807 257.532C123.075 257.112 122.499 256.518 122.079 255.75C121.659 254.97 121.449 254.07 121.449 253.05C121.449 252.03 121.653 251.136 122.061 250.368C122.469 249.6 123.039 249.012 123.771 248.604C124.515 248.184 125.367 247.974 126.327 247.974C127.263 247.974 128.091 248.178 128.811 248.586C129.531 248.994 130.083 249.558 130.467 250.278C130.863 250.986 131.061 251.79 131.061 252.69ZM129.369 252.348C129.369 251.724 129.231 251.19 128.955 250.746C128.679 250.29 128.301 249.948 127.821 249.72C127.353 249.48 126.831 249.36 126.255 249.36C125.427 249.36 124.719 249.624 124.131 250.152C123.555 250.68 123.225 251.412 123.141 252.348H129.369ZM146.859 245.454V254.724C146.859 255.756 146.541 256.584 145.905 257.208C145.269 257.82 144.429 258.126 143.385 258.126C142.329 258.126 141.483 257.814 140.847 257.19C140.211 256.554 139.893 255.69 139.893 254.598H141.531C141.543 255.21 141.699 255.708 141.999 256.092C142.311 256.476 142.773 256.668 143.385 256.668C143.997 256.668 144.453 256.488 144.753 256.128C145.053 255.756 145.203 255.288 145.203 254.724V245.454H146.859ZM155.648 258.162C154.724 258.162 153.884 257.952 153.128 257.532C152.384 257.112 151.796 256.518 151.364 255.75C150.944 254.97 150.734 254.07 150.734 253.05C150.734 252.042 150.95 251.154 151.382 250.386C151.826 249.606 152.426 249.012 153.182 248.604C153.938 248.184 154.784 247.974 155.72 247.974C156.656 247.974 157.502 248.184 158.258 248.604C159.014 249.012 159.608 249.6 160.04 250.368C160.484 251.136 160.706 252.03 160.706 253.05C160.706 254.07 160.478 254.97 160.022 255.75C159.578 256.518 158.972 257.112 158.204 257.532C157.436 257.952 156.584 258.162 155.648 258.162ZM155.648 256.722C156.236 256.722 156.788 256.584 157.304 256.308C157.82 256.032 158.234 255.618 158.546 255.066C158.87 254.514 159.032 253.842 159.032 253.05C159.032 252.258 158.876 251.586 158.564 251.034C158.252 250.482 157.844 250.074 157.34 249.81C156.836 249.534 156.29 249.396 155.702 249.396C155.102 249.396 154.55 249.534 154.046 249.81C153.554 250.074 153.158 250.482 152.858 251.034C152.558 251.586 152.408 252.258 152.408 253.05C152.408 253.854 152.552 254.532 152.84 255.084C153.14 255.636 153.536 256.05 154.028 256.326C154.52 256.59 155.06 256.722 155.648 256.722ZM165.758 249.972C166.094 249.384 166.586 248.904 167.234 248.532C167.882 248.16 168.62 247.974 169.448 247.974C170.336 247.974 171.134 248.184 171.842 248.604C172.55 249.024 173.108 249.618 173.516 250.386C173.924 251.142 174.128 252.024 174.128 253.032C174.128 254.028 173.924 254.916 173.516 255.696C173.108 256.476 172.544 257.082 171.824 257.514C171.116 257.946 170.324 258.162 169.448 258.162C168.596 258.162 167.846 257.976 167.198 257.604C166.562 257.232 166.082 256.758 165.758 256.182V258H164.12V244.68H165.758V249.972ZM172.454 253.032C172.454 252.288 172.304 251.64 172.004 251.088C171.704 250.536 171.296 250.116 170.78 249.828C170.276 249.54 169.718 249.396 169.106 249.396C168.506 249.396 167.948 249.546 167.432 249.846C166.928 250.134 166.52 250.56 166.208 251.124C165.908 251.676 165.758 252.318 165.758 253.05C165.758 253.794 165.908 254.448 166.208 255.012C166.52 255.564 166.928 255.99 167.432 256.29C167.948 256.578 168.506 256.722 169.106 256.722C169.718 256.722 170.276 256.578 170.78 256.29C171.296 255.99 171.704 255.564 172.004 255.012C172.304 254.448 172.454 253.788 172.454 253.032Z" fill="#1D1D1D"/>
<path d="M130 308H109C108.47 308 107.961 308.211 107.586 308.586C107.211 308.961 107 309.47 107 310V331C107 331.53 107.211 332.039 107.586 332.414C107.961 332.789 108.47 333 109 333H130C130.53 333 131.039 332.789 131.414 332.414C131.789 332.039 132 331.53 132 331V310C132 309.47 131.789 308.961 131.414 308.586C131.039 308.211 130.53 308 130 308ZM115.5 326.5C115.5 326.765 115.395 327.02 115.207 327.207C115.02 327.395 114.765 327.5 114.5 327.5C114.235 327.5 113.98 327.395 113.793 327.207C113.605 327.02 113.5 326.765 113.5 326.5V318.5C113.5 318.235 113.605 317.98 113.793 317.793C113.98 317.605 114.235 317.5 114.5 317.5C114.765 317.5 115.02 317.605 115.207 317.793C115.395 317.98 115.5 318.235 115.5 318.5V326.5ZM114.5 316C114.203 316 113.913 315.912 113.667 315.747C113.42 315.582 113.228 315.348 113.114 315.074C113.001 314.8 112.971 314.498 113.029 314.207C113.087 313.916 113.23 313.649 113.439 313.439C113.649 313.23 113.916 313.087 114.207 313.029C114.498 312.971 114.8 313.001 115.074 313.114C115.348 313.228 115.582 313.42 115.747 313.667C115.912 313.913 116 314.203 116 314.5C116 314.898 115.842 315.279 115.561 315.561C115.279 315.842 114.898 316 114.5 316V316ZM126.5 326.5C126.5 326.765 126.395 327.02 126.207 327.207C126.02 327.395 125.765 327.5 125.5 327.5C125.235 327.5 124.98 327.395 124.793 327.207C124.605 327.02 124.5 326.765 124.5 326.5V322C124.5 321.337 124.237 320.701 123.768 320.232C123.299 319.763 122.663 319.5 122 319.5C121.337 319.5 120.701 319.763 120.232 320.232C119.763 320.701 119.5 321.337 119.5 322V326.5C119.5 326.765 119.395 327.02 119.207 327.207C119.02 327.395 118.765 327.5 118.5 327.5C118.235 327.5 117.98 327.395 117.793 327.207C117.605 327.02 117.5 326.765 117.5 326.5V318.5C117.499 318.254 117.589 318.016 117.753 317.832C117.917 317.649 118.142 317.531 118.387 317.504C118.631 317.476 118.878 317.539 119.078 317.681C119.279 317.824 119.42 318.035 119.475 318.275C120.152 317.816 120.94 317.551 121.757 317.506C122.573 317.462 123.386 317.641 124.108 318.024C124.83 318.407 125.435 318.98 125.856 319.68C126.277 320.381 126.5 321.183 126.5 322V326.5Z" fill="black"/>
<path d="M154.5 324.5C156.709 324.5 158.5 322.709 158.5 320.5C158.5 318.291 156.709 316.5 154.5 316.5C152.291 316.5 150.5 318.291 150.5 320.5C150.5 322.709 152.291 324.5 154.5 324.5Z" fill="black"/>
<path d="M160 308H149C147.143 308 145.363 308.737 144.05 310.05C142.737 311.363 142 313.143 142 315V326C142 327.857 142.737 329.637 144.05 330.95C145.363 332.263 147.143 333 149 333H160C161.857 333 163.637 332.263 164.95 330.95C166.263 329.637 167 327.857 167 326V315C167 313.143 166.263 311.363 164.95 310.05C163.637 308.737 161.857 308 160 308V308ZM154.5 326.5C153.313 326.5 152.153 326.148 151.167 325.489C150.18 324.83 149.411 323.892 148.957 322.796C148.503 321.7 148.384 320.493 148.615 319.329C148.847 318.166 149.418 317.096 150.257 316.257C151.096 315.418 152.166 314.847 153.329 314.615C154.493 314.384 155.7 314.503 156.796 314.957C157.892 315.411 158.83 316.18 159.489 317.167C160.148 318.153 160.5 319.313 160.5 320.5C160.5 322.091 159.868 323.617 158.743 324.743C157.617 325.868 156.091 326.5 154.5 326.5ZM161 315.5C160.703 315.5 160.413 315.412 160.167 315.247C159.92 315.082 159.728 314.848 159.614 314.574C159.501 314.3 159.471 313.998 159.529 313.707C159.587 313.416 159.73 313.149 159.939 312.939C160.149 312.73 160.416 312.587 160.707 312.529C160.998 312.471 161.3 312.501 161.574 312.614C161.848 312.728 162.082 312.92 162.247 313.167C162.412 313.413 162.5 313.703 162.5 314C162.5 314.398 162.342 314.779 162.061 315.061C161.779 315.342 161.398 315.5 161 315.5Z" fill="black"/>
<defs>
<filter id="filter0_d_121_610" x="32.5" y="0" width="198" height="198" filterUnits="userSpaceOnUse" color-interpolation-filters="sRGB">
<feFlood flood-opacity="0" result="BackgroundImageFix"/>
<feColorMatrix in="SourceAlpha" type="matrix" values="0 0 0 0 0 0 0 0 0 0 0 0 0 0 0 0 0 0 127 0" result="hardAlpha"/>
<feOffset dy="4"/>
<feGaussianBlur stdDeviation="2"/>
<feComposite in2="hardAlpha" operator="out"/>
<feColorMatrix type="matrix" values="0 0 0 0 0 0 0 0 0 0 0 0 0 0 0 0 0 0 0.25 0"/>
<feBlend mode="normal" in2="BackgroundImageFix" result="effect1_dropShadow_121_610"/>
<feBlend mode="normal" in="SourceGraphic" in2="effect1_dropShadow_121_610" result="shape"/>
</filter>
<filter id="filter1_d_121_610" x="1" y="130" width="271" height="243" filterUnits="userSpaceOnUse" color-interpolation-filters="sRGB">
<feFlood flood-opacity="0" result="BackgroundImageFix"/>
<feColorMatrix in="SourceAlpha" type="matrix" values="0 0 0 0 0 0 0 0 0 0 0 0 0 0 0 0 0 0 127 0" result="hardAlpha"/>
<feOffset dy="4"/>
<feGaussianBlur stdDeviation="2"/>
<feComposite in2="hardAlpha" operator="out"/>
<feColorMatrix type="matrix" values="0 0 0 0 0 0 0 0 0 0 0 0 0 0 0 0 0 0 0.25 0"/>
<feBlend mode="normal" in2="BackgroundImageFix" result="effect1_dropShadow_121_610"/>
<feBlend mode="normal" in="SourceGraphic" in2="effect1_dropShadow_121_610" result="shape"/>
</filter>
<linearGradient id="paint0_linear_121_610" x1="5" y1="130" x2="268" y2="358.5" gradientUnits="userSpaceOnUse">
<stop stop-color="#85F1FF"/>
<stop offset="0.53125" stop-color="#C1CDCF"/>
<stop offset="1" stop-color="#FFA99E"/>
</linearGradient>
</defs>
</svg>
