<svg width="287" height="381" viewBox="0 0 287 381" fill="none" xmlns="http://www.w3.org/2000/svg">
<g filter="url(#filter0_d_121_632)">
<circle cx="138.5" cy="95" r="95" fill="#D9D9D9"/>
<path d="M282 362L282 372L253.5 372" stroke="#FFDC61" stroke-linecap="square"/>
<path d="M8 175.5L8 126L21 126" stroke="#94FFB2" stroke-width="1.2" stroke-linecap="square"/>
<path d="M5 144L5 123L18.5 123" stroke="#94FFB2" stroke-width="1.2" stroke-linecap="square"/>
<path d="M228.5 369H279V358" stroke="#FFDC61"/>
<path fill-rule="evenodd" clip-rule="evenodd" d="M234.337 130H261.592L275 143.408V365H44.0013L12 332.999V130H42.6634C56.9442 169.093 94.4631 197 138.5 197C182.537 197 220.056 169.093 234.337 130Z" fill="url(#paint0_linear_121_632)"/>
<line x1="148" y1="284" x2="140" y2="284" stroke="#1D1D1D" stroke-opacity="0.4" stroke-width="2" stroke-linecap="square"/>
<path d="M64.18 232H60.418L54.126 222.474V232H50.364V216.556H54.126L60.418 226.126V216.556H64.18V232ZM67.259 225.84C67.259 224.579 67.4936 223.471 67.963 222.518C68.447 221.565 69.0996 220.831 69.921 220.318C70.7423 219.805 71.659 219.548 72.671 219.548C73.5363 219.548 74.2916 219.724 74.937 220.076C75.597 220.428 76.103 220.89 76.455 221.462V219.724H80.217V232H76.455V230.262C76.0883 230.834 75.575 231.296 74.915 231.648C74.2696 232 73.5143 232.176 72.649 232.176C71.6516 232.176 70.7423 231.919 69.921 231.406C69.0996 230.878 68.447 230.137 67.963 229.184C67.4936 228.216 67.259 227.101 67.259 225.84ZM76.455 225.862C76.455 224.923 76.191 224.183 75.663 223.64C75.1496 223.097 74.519 222.826 73.771 222.826C73.023 222.826 72.385 223.097 71.857 223.64C71.3436 224.168 71.087 224.901 71.087 225.84C71.087 226.779 71.3436 227.527 71.857 228.084C72.385 228.627 73.023 228.898 73.771 228.898C74.519 228.898 75.1496 228.627 75.663 228.084C76.191 227.541 76.455 226.801 76.455 225.862ZM99.7026 219.592C101.228 219.592 102.438 220.054 103.333 220.978C104.242 221.902 104.697 223.185 104.697 224.828V232H100.957V225.334C100.957 224.542 100.744 223.933 100.319 223.508C99.9079 223.068 99.3359 222.848 98.6026 222.848C97.8693 222.848 97.2899 223.068 96.8646 223.508C96.4539 223.933 96.2486 224.542 96.2486 225.334V232H92.5086V225.334C92.5086 224.542 92.2959 223.933 91.8706 223.508C91.4599 223.068 90.8879 222.848 90.1546 222.848C89.4213 222.848 88.8419 223.068 88.4166 223.508C88.0059 223.933 87.8006 224.542 87.8006 225.334V232H84.0386V219.724H87.8006V221.264C88.1819 220.751 88.6806 220.347 89.2966 220.054C89.9126 219.746 90.6093 219.592 91.3866 219.592C92.3106 219.592 93.1319 219.79 93.8506 220.186C94.5839 220.582 95.1559 221.147 95.5666 221.88C95.9919 221.205 96.5713 220.655 97.3046 220.23C98.0379 219.805 98.8373 219.592 99.7026 219.592ZM120 225.664C120 226.016 119.978 226.383 119.934 226.764H111.42C111.478 227.527 111.72 228.113 112.146 228.524C112.586 228.92 113.121 229.118 113.752 229.118C114.69 229.118 115.343 228.722 115.71 227.93H119.714C119.508 228.737 119.134 229.463 118.592 230.108C118.064 230.753 117.396 231.259 116.59 231.626C115.783 231.993 114.881 232.176 113.884 232.176C112.681 232.176 111.61 231.919 110.672 231.406C109.733 230.893 109 230.159 108.472 229.206C107.944 228.253 107.68 227.138 107.68 225.862C107.68 224.586 107.936 223.471 108.45 222.518C108.978 221.565 109.711 220.831 110.65 220.318C111.588 219.805 112.666 219.548 113.884 219.548C115.072 219.548 116.128 219.797 117.052 220.296C117.976 220.795 118.694 221.506 119.208 222.43C119.736 223.354 120 224.432 120 225.664ZM116.15 224.674C116.15 224.029 115.93 223.515 115.49 223.134C115.05 222.753 114.5 222.562 113.84 222.562C113.209 222.562 112.674 222.745 112.234 223.112C111.808 223.479 111.544 223.999 111.442 224.674H116.15ZM134.434 232.154C133.305 232.154 132.293 231.971 131.398 231.604C130.504 231.237 129.785 230.695 129.242 229.976C128.714 229.257 128.436 228.392 128.406 227.38H132.41C132.469 227.952 132.667 228.392 133.004 228.7C133.342 228.993 133.782 229.14 134.324 229.14C134.882 229.14 135.322 229.015 135.644 228.766C135.967 228.502 136.128 228.143 136.128 227.688C136.128 227.307 135.996 226.991 135.732 226.742C135.483 226.493 135.168 226.287 134.786 226.126C134.42 225.965 133.892 225.781 133.202 225.576C132.205 225.268 131.391 224.96 130.76 224.652C130.13 224.344 129.587 223.889 129.132 223.288C128.678 222.687 128.45 221.902 128.45 220.934C128.45 219.497 128.971 218.375 130.012 217.568C131.054 216.747 132.41 216.336 134.082 216.336C135.784 216.336 137.155 216.747 138.196 217.568C139.238 218.375 139.795 219.504 139.868 220.956H135.798C135.769 220.457 135.586 220.069 135.248 219.79C134.911 219.497 134.478 219.35 133.95 219.35C133.496 219.35 133.129 219.475 132.85 219.724C132.572 219.959 132.432 220.303 132.432 220.758C132.432 221.257 132.667 221.645 133.136 221.924C133.606 222.203 134.339 222.503 135.336 222.826C136.334 223.163 137.14 223.486 137.756 223.794C138.387 224.102 138.93 224.549 139.384 225.136C139.839 225.723 140.066 226.478 140.066 227.402C140.066 228.282 139.839 229.081 139.384 229.8C138.944 230.519 138.299 231.091 137.448 231.516C136.598 231.941 135.593 232.154 134.434 232.154ZM155.604 219.724V232H151.842V230.328C151.46 230.871 150.94 231.311 150.28 231.648C149.634 231.971 148.916 232.132 148.124 232.132C147.185 232.132 146.356 231.927 145.638 231.516C144.919 231.091 144.362 230.482 143.966 229.69C143.57 228.898 143.372 227.967 143.372 226.896V219.724H147.112V226.39C147.112 227.211 147.324 227.849 147.75 228.304C148.175 228.759 148.747 228.986 149.466 228.986C150.199 228.986 150.778 228.759 151.204 228.304C151.629 227.849 151.842 227.211 151.842 226.39V219.724H155.604ZM163.168 221.77C163.608 221.095 164.158 220.567 164.818 220.186C165.478 219.79 166.211 219.592 167.018 219.592V223.574H165.984C165.045 223.574 164.341 223.779 163.872 224.19C163.402 224.586 163.168 225.29 163.168 226.302V232H159.406V219.724H163.168V221.77ZM177.396 219.592C178.833 219.592 179.977 220.061 180.828 221C181.693 221.924 182.126 223.2 182.126 224.828V232H178.386V225.334C178.386 224.513 178.173 223.875 177.748 223.42C177.323 222.965 176.751 222.738 176.032 222.738C175.313 222.738 174.741 222.965 174.316 223.42C173.891 223.875 173.678 224.513 173.678 225.334V232H169.916V219.724H173.678V221.352C174.059 220.809 174.573 220.384 175.218 220.076C175.863 219.753 176.589 219.592 177.396 219.592ZM185.092 225.84C185.092 224.579 185.327 223.471 185.796 222.518C186.28 221.565 186.933 220.831 187.754 220.318C188.575 219.805 189.492 219.548 190.504 219.548C191.369 219.548 192.125 219.724 192.77 220.076C193.43 220.428 193.936 220.89 194.288 221.462V219.724H198.05V232H194.288V230.262C193.921 230.834 193.408 231.296 192.748 231.648C192.103 232 191.347 232.176 190.482 232.176C189.485 232.176 188.575 231.919 187.754 231.406C186.933 230.878 186.28 230.137 185.796 229.184C185.327 228.216 185.092 227.101 185.092 225.84ZM194.288 225.862C194.288 224.923 194.024 224.183 193.496 223.64C192.983 223.097 192.352 222.826 191.604 222.826C190.856 222.826 190.218 223.097 189.69 223.64C189.177 224.168 188.92 224.901 188.92 225.84C188.92 226.779 189.177 227.527 189.69 228.084C190.218 228.627 190.856 228.898 191.604 228.898C192.352 228.898 192.983 228.627 193.496 228.084C194.024 227.541 194.288 226.801 194.288 225.862ZM217.536 219.592C219.061 219.592 220.271 220.054 221.166 220.978C222.075 221.902 222.53 223.185 222.53 224.828V232H218.79V225.334C218.79 224.542 218.577 223.933 218.152 223.508C217.741 223.068 217.169 222.848 216.436 222.848C215.702 222.848 215.123 223.068 214.698 223.508C214.287 223.933 214.082 224.542 214.082 225.334V232H210.342V225.334C210.342 224.542 210.129 223.933 209.704 223.508C209.293 223.068 208.721 222.848 207.988 222.848C207.254 222.848 206.675 223.068 206.25 223.508C205.839 223.933 205.634 224.542 205.634 225.334V232H201.872V219.724H205.634V221.264C206.015 220.751 206.514 220.347 207.13 220.054C207.746 219.746 208.442 219.592 209.22 219.592C210.144 219.592 210.965 219.79 211.684 220.186C212.417 220.582 212.989 221.147 213.4 221.88C213.825 221.205 214.404 220.655 215.138 220.23C215.871 219.805 216.67 219.592 217.536 219.592ZM237.833 225.664C237.833 226.016 237.811 226.383 237.767 226.764H229.253C229.312 227.527 229.554 228.113 229.979 228.524C230.419 228.92 230.954 229.118 231.585 229.118C232.524 229.118 233.176 228.722 233.543 227.93H237.547C237.342 228.737 236.968 229.463 236.425 230.108C235.897 230.753 235.23 231.259 234.423 231.626C233.616 231.993 232.714 232.176 231.717 232.176C230.514 232.176 229.444 231.919 228.505 231.406C227.566 230.893 226.833 230.159 226.305 229.206C225.777 228.253 225.513 227.138 225.513 225.862C225.513 224.586 225.77 223.471 226.283 222.518C226.811 221.565 227.544 220.831 228.483 220.318C229.422 219.805 230.5 219.548 231.717 219.548C232.905 219.548 233.961 219.797 234.885 220.296C235.809 220.795 236.528 221.506 237.041 222.43C237.569 223.354 237.833 224.432 237.833 225.664ZM233.983 224.674C233.983 224.029 233.763 223.515 233.323 223.134C232.883 222.753 232.333 222.562 231.673 222.562C231.042 222.562 230.507 222.745 230.067 223.112C229.642 223.479 229.378 223.999 229.275 224.674H233.983Z" fill="#1D1D1D"/>
<path d="M104.992 258L102.004 252.87H100.024V258H98.386V245.454H102.436C103.384 245.454 104.182 245.616 104.83 245.94C105.49 246.264 105.982 246.702 106.306 247.254C106.63 247.806 106.792 248.436 106.792 249.144C106.792 250.008 106.54 250.77 106.036 251.43C105.544 252.09 104.8 252.528 103.804 252.744L106.954 258H104.992ZM100.024 251.556H102.436C103.324 251.556 103.99 251.34 104.434 250.908C104.878 250.464 105.1 249.876 105.1 249.144C105.1 248.4 104.878 247.824 104.434 247.416C104.002 247.008 103.336 246.804 102.436 246.804H100.024V251.556ZM114.899 258.162C113.975 258.162 113.135 257.952 112.379 257.532C111.635 257.112 111.047 256.518 110.615 255.75C110.195 254.97 109.985 254.07 109.985 253.05C109.985 252.042 110.201 251.154 110.633 250.386C111.077 249.606 111.677 249.012 112.433 248.604C113.189 248.184 114.035 247.974 114.971 247.974C115.907 247.974 116.753 248.184 117.509 248.604C118.265 249.012 118.859 249.6 119.291 250.368C119.735 251.136 119.957 252.03 119.957 253.05C119.957 254.07 119.729 254.97 119.273 255.75C118.829 256.518 118.223 257.112 117.455 257.532C116.687 257.952 115.835 258.162 114.899 258.162ZM114.899 256.722C115.487 256.722 116.039 256.584 116.555 256.308C117.071 256.032 117.485 255.618 117.797 255.066C118.121 254.514 118.283 253.842 118.283 253.05C118.283 252.258 118.127 251.586 117.815 251.034C117.503 250.482 117.095 250.074 116.591 249.81C116.087 249.534 115.541 249.396 114.953 249.396C114.353 249.396 113.801 249.534 113.297 249.81C112.805 250.074 112.409 250.482 112.109 251.034C111.809 251.586 111.659 252.258 111.659 253.05C111.659 253.854 111.803 254.532 112.091 255.084C112.391 255.636 112.787 256.05 113.279 256.326C113.771 256.59 114.311 256.722 114.899 256.722ZM125.009 244.68V258H123.371V244.68H125.009ZM138.061 252.69C138.061 253.002 138.043 253.332 138.007 253.68H130.123C130.183 254.652 130.513 255.414 131.113 255.966C131.725 256.506 132.463 256.776 133.327 256.776C134.035 256.776 134.623 256.614 135.091 256.29C135.571 255.954 135.907 255.51 136.099 254.958H137.863C137.599 255.906 137.071 256.68 136.279 257.28C135.487 257.868 134.503 258.162 133.327 258.162C132.391 258.162 131.551 257.952 130.807 257.532C130.075 257.112 129.499 256.518 129.079 255.75C128.659 254.97 128.449 254.07 128.449 253.05C128.449 252.03 128.653 251.136 129.061 250.368C129.469 249.6 130.039 249.012 130.771 248.604C131.515 248.184 132.367 247.974 133.327 247.974C134.263 247.974 135.091 248.178 135.811 248.586C136.531 248.994 137.083 249.558 137.467 250.278C137.863 250.986 138.061 251.79 138.061 252.69ZM136.369 252.348C136.369 251.724 136.231 251.19 135.955 250.746C135.679 250.29 135.301 249.948 134.821 249.72C134.353 249.48 133.831 249.36 133.255 249.36C132.427 249.36 131.719 249.624 131.131 250.152C130.555 250.68 130.225 251.412 130.141 252.348H136.369ZM153.859 245.454V254.724C153.859 255.756 153.541 256.584 152.905 257.208C152.269 257.82 151.429 258.126 150.385 258.126C149.329 258.126 148.483 257.814 147.847 257.19C147.211 256.554 146.893 255.69 146.893 254.598H148.531C148.543 255.21 148.699 255.708 148.999 256.092C149.311 256.476 149.773 256.668 150.385 256.668C150.997 256.668 151.453 256.488 151.753 256.128C152.053 255.756 152.203 255.288 152.203 254.724V245.454H153.859ZM162.648 258.162C161.724 258.162 160.884 257.952 160.128 257.532C159.384 257.112 158.796 256.518 158.364 255.75C157.944 254.97 157.734 254.07 157.734 253.05C157.734 252.042 157.95 251.154 158.382 250.386C158.826 249.606 159.426 249.012 160.182 248.604C160.938 248.184 161.784 247.974 162.72 247.974C163.656 247.974 164.502 248.184 165.258 248.604C166.014 249.012 166.608 249.6 167.04 250.368C167.484 251.136 167.706 252.03 167.706 253.05C167.706 254.07 167.478 254.97 167.022 255.75C166.578 256.518 165.972 257.112 165.204 257.532C164.436 257.952 163.584 258.162 162.648 258.162ZM162.648 256.722C163.236 256.722 163.788 256.584 164.304 256.308C164.82 256.032 165.234 255.618 165.546 255.066C165.87 254.514 166.032 253.842 166.032 253.05C166.032 252.258 165.876 251.586 165.564 251.034C165.252 250.482 164.844 250.074 164.34 249.81C163.836 249.534 163.29 249.396 162.702 249.396C162.102 249.396 161.55 249.534 161.046 249.81C160.554 250.074 160.158 250.482 159.858 251.034C159.558 251.586 159.408 252.258 159.408 253.05C159.408 253.854 159.552 254.532 159.84 255.084C160.14 255.636 160.536 256.05 161.028 256.326C161.52 256.59 162.06 256.722 162.648 256.722ZM172.758 249.972C173.094 249.384 173.586 248.904 174.234 248.532C174.882 248.16 175.62 247.974 176.448 247.974C177.336 247.974 178.134 248.184 178.842 248.604C179.55 249.024 180.108 249.618 180.516 250.386C180.924 251.142 181.128 252.024 181.128 253.032C181.128 254.028 180.924 254.916 180.516 255.696C180.108 256.476 179.544 257.082 178.824 257.514C178.116 257.946 177.324 258.162 176.448 258.162C175.596 258.162 174.846 257.976 174.198 257.604C173.562 257.232 173.082 256.758 172.758 256.182V258H171.12V244.68H172.758V249.972ZM179.454 253.032C179.454 252.288 179.304 251.64 179.004 251.088C178.704 250.536 178.296 250.116 177.78 249.828C177.276 249.54 176.718 249.396 176.106 249.396C175.506 249.396 174.948 249.546 174.432 249.846C173.928 250.134 173.52 250.56 173.208 251.124C172.908 251.676 172.758 252.318 172.758 253.05C172.758 253.794 172.908 254.448 173.208 255.012C173.52 255.564 173.928 255.99 174.432 256.29C174.948 256.578 175.506 256.722 176.106 256.722C176.718 256.722 177.276 256.578 177.78 256.29C178.296 255.99 178.704 255.564 179.004 255.012C179.304 254.448 179.454 253.788 179.454 253.032Z" fill="#1D1D1D"/>
<path d="M137 308H116C115.47 308 114.961 308.211 114.586 308.586C114.211 308.961 114 309.47 114 310V331C114 331.53 114.211 332.039 114.586 332.414C114.961 332.789 115.47 333 116 333H137C137.53 333 138.039 332.789 138.414 332.414C138.789 332.039 139 331.53 139 331V310C139 309.47 138.789 308.961 138.414 308.586C138.039 308.211 137.53 308 137 308ZM122.5 326.5C122.5 326.765 122.395 327.02 122.207 327.207C122.02 327.395 121.765 327.5 121.5 327.5C121.235 327.5 120.98 327.395 120.793 327.207C120.605 327.02 120.5 326.765 120.5 326.5V318.5C120.5 318.235 120.605 317.98 120.793 317.793C120.98 317.605 121.235 317.5 121.5 317.5C121.765 317.5 122.02 317.605 122.207 317.793C122.395 317.98 122.5 318.235 122.5 318.5V326.5ZM121.5 316C121.203 316 120.913 315.912 120.667 315.747C120.42 315.582 120.228 315.348 120.114 315.074C120.001 314.8 119.971 314.498 120.029 314.207C120.087 313.916 120.23 313.649 120.439 313.439C120.649 313.23 120.916 313.087 121.207 313.029C121.498 312.971 121.8 313.001 122.074 313.114C122.348 313.228 122.582 313.42 122.747 313.667C122.912 313.913 123 314.203 123 314.5C123 314.898 122.842 315.279 122.561 315.561C122.279 315.842 121.898 316 121.5 316V316ZM133.5 326.5C133.5 326.765 133.395 327.02 133.207 327.207C133.02 327.395 132.765 327.5 132.5 327.5C132.235 327.5 131.98 327.395 131.793 327.207C131.605 327.02 131.5 326.765 131.5 326.5V322C131.5 321.337 131.237 320.701 130.768 320.232C130.299 319.763 129.663 319.5 129 319.5C128.337 319.5 127.701 319.763 127.232 320.232C126.763 320.701 126.5 321.337 126.5 322V326.5C126.5 326.765 126.395 327.02 126.207 327.207C126.02 327.395 125.765 327.5 125.5 327.5C125.235 327.5 124.98 327.395 124.793 327.207C124.605 327.02 124.5 326.765 124.5 326.5V318.5C124.499 318.254 124.589 318.016 124.753 317.832C124.917 317.649 125.142 317.531 125.387 317.504C125.631 317.476 125.878 317.539 126.078 317.681C126.279 317.824 126.42 318.035 126.475 318.275C127.152 317.816 127.94 317.551 128.757 317.506C129.573 317.462 130.386 317.641 131.108 318.024C131.83 318.407 132.435 318.98 132.856 319.68C133.277 320.381 133.5 321.183 133.5 322V326.5Z" fill="black"/>
<path d="M161.5 324.5C163.709 324.5 165.5 322.709 165.5 320.5C165.5 318.291 163.709 316.5 161.5 316.5C159.291 316.5 157.5 318.291 157.5 320.5C157.5 322.709 159.291 324.5 161.5 324.5Z" fill="black"/>
<path d="M167 308H156C154.143 308 152.363 308.737 151.05 310.05C149.737 311.363 149 313.143 149 315V326C149 327.857 149.737 329.637 151.05 330.95C152.363 332.263 154.143 333 156 333H167C168.857 333 170.637 332.263 171.95 330.95C173.263 329.637 174 327.857 174 326V315C174 313.143 173.263 311.363 171.95 310.05C170.637 308.737 168.857 308 167 308V308ZM161.5 326.5C160.313 326.5 159.153 326.148 158.167 325.489C157.18 324.83 156.411 323.892 155.957 322.796C155.503 321.7 155.384 320.493 155.615 319.329C155.847 318.166 156.418 317.096 157.257 316.257C158.096 315.418 159.166 314.847 160.329 314.615C161.493 314.384 162.7 314.503 163.796 314.957C164.892 315.411 165.83 316.18 166.489 317.167C167.148 318.153 167.5 319.313 167.5 320.5C167.5 322.091 166.868 323.617 165.743 324.743C164.617 325.868 163.091 326.5 161.5 326.5ZM168 315.5C167.703 315.5 167.413 315.412 167.167 315.247C166.92 315.082 166.728 314.848 166.614 314.574C166.501 314.3 166.471 313.998 166.529 313.707C166.587 313.416 166.73 313.149 166.939 312.939C167.149 312.73 167.416 312.587 167.707 312.529C167.998 312.471 168.3 312.501 168.574 312.614C168.848 312.728 169.082 312.92 169.247 313.167C169.412 313.413 169.5 313.703 169.5 314C169.5 314.398 169.342 314.779 169.061 315.061C168.779 315.342 168.398 315.5 168 315.5Z" fill="black"/>
</g>
<defs>
<filter id="filter0_d_121_632" x="0.400391" y="0" width="286.1" height="380.5" filterUnits="userSpaceOnUse" color-interpolation-filters="sRGB">
<feFlood flood-opacity="0" result="BackgroundImageFix"/>
<feColorMatrix in="SourceAlpha" type="matrix" values="0 0 0 0 0 0 0 0 0 0 0 0 0 0 0 0 0 0 127 0" result="hardAlpha"/>
<feOffset dy="4"/>
<feGaussianBlur stdDeviation="2"/>
<feComposite in2="hardAlpha" operator="out"/>
<feColorMatrix type="matrix" values="0 0 0 0 0 0 0 0 0 0 0 0 0 0 0 0 0 0 0.25 0"/>
<feBlend mode="normal" in2="BackgroundImageFix" result="effect1_dropShadow_121_632"/>
<feBlend mode="normal" in="SourceGraphic" in2="effect1_dropShadow_121_632" result="shape"/>
</filter>
<linearGradient id="paint0_linear_121_632" x1="12" y1="130" x2="275" y2="365" gradientUnits="userSpaceOnUse">
<stop stop-color="#94FFB2"/>
<stop offset="1" stop-color="#FFDC61"/>
</linearGradient>
</defs>
</svg>
