<svg width="205" height="60" viewBox="0 0 205 60" fill="none" xmlns="http://www.w3.org/2000/svg">
<g filter="url(#filter0_d_128_704)">
<path d="M13.381 0L4 8.32V43.68L13.381 52H191.619L201 43.68V8.32L191.619 0H13.381Z" fill="url(#paint0_linear_128_704)" fill-opacity="0.15" shape-rendering="crispEdges"/>
<path d="M5 43.2303V8.76973L13.7605 1H191.239L200 8.76973V43.2303L191.239 51H13.7605L5 43.2303Z" stroke="url(#paint1_linear_128_704)" stroke-width="2" stroke-linejoin="round" shape-rendering="crispEdges"/>
</g>
<path d="M45.7012 30.3633L48.7285 18.7812H51.2969L47.0488 33H45.291L45.7012 30.3633ZM43.0547 18.7812L46.0625 30.3633L46.502 33H44.7441L40.4961 18.7812H43.0547ZM55.1543 22.4336V33H52.8789V22.4336H55.1543ZM52.7617 19.6699C52.7617 19.3053 52.8724 19.0026 53.0938 18.7617C53.3151 18.5143 53.6243 18.3906 54.0215 18.3906C54.4186 18.3906 54.7279 18.5111 54.9492 18.752C55.1706 18.9928 55.2812 19.2956 55.2812 19.6602C55.2812 20.0182 55.1706 20.3177 54.9492 20.5586C54.7279 20.7995 54.4186 20.9199 54.0215 20.9199C53.6243 20.9199 53.3151 20.7995 53.0938 20.5586C52.8724 20.3177 52.7617 20.0215 52.7617 19.6699ZM61.6289 33.1953C60.9453 33.1953 60.3366 33.0944 59.8027 32.8926C59.2689 32.6842 58.8164 32.3783 58.4453 31.9746C58.0742 31.5645 57.791 31.0632 57.5957 30.4707C57.4004 29.8717 57.3027 29.1784 57.3027 28.3906V27.375C57.3027 26.4831 57.4036 25.7148 57.6055 25.0703C57.8138 24.4193 58.1003 23.8854 58.4648 23.4688C58.8294 23.0521 59.2591 22.7428 59.7539 22.541C60.2552 22.3392 60.7988 22.2383 61.3848 22.2383C62.0488 22.2383 62.625 22.3457 63.1133 22.5605C63.6016 22.7754 64.002 23.0977 64.3145 23.5273C64.6335 23.957 64.8678 24.4876 65.0176 25.1191C65.1738 25.7507 65.252 26.4766 65.252 27.2969V28.4395H58.3965V26.7207H63.0059V26.4766C62.9928 25.9948 62.9342 25.5814 62.8301 25.2363C62.7259 24.8848 62.5566 24.6178 62.3223 24.4355C62.0944 24.2467 61.7786 24.1523 61.375 24.1523C61.082 24.1523 60.8216 24.2077 60.5938 24.3184C60.3659 24.429 60.1771 24.6081 60.0273 24.8555C59.8841 25.1029 59.7734 25.4349 59.6953 25.8516C59.6172 26.2617 59.5781 26.7695 59.5781 27.375V28.3906C59.5781 28.918 59.6237 29.3639 59.7148 29.7285C59.8125 30.0931 59.9557 30.3926 60.1445 30.627C60.3333 30.8548 60.5612 31.0241 60.8281 31.1348C61.1016 31.2389 61.4173 31.291 61.7754 31.291C62.3027 31.291 62.7552 31.1934 63.1328 30.998C63.5169 30.7962 63.849 30.5358 64.1289 30.2168L65.1348 31.6133C64.946 31.8672 64.6921 32.1178 64.373 32.3652C64.054 32.6061 63.6667 32.8047 63.2109 32.9609C62.7617 33.1172 62.2344 33.1953 61.6289 33.1953ZM69.4219 30.6367L71.4922 22.4336H72.9277L72.6445 24.9434L70.584 33H69.3145L69.4219 30.6367ZM68.5527 22.4336L70.1348 30.666L70.1445 33H68.7188L66.3457 22.4336H68.5527ZM74.5977 30.5684L76.1113 22.4336H78.3281L75.9551 33H74.5293L74.5977 30.5684ZM73.1719 22.4336L75.2129 30.5293L75.3594 33H74.0898L71.9902 24.9434L71.7168 22.4336H73.1719ZM91.6191 28.3613H93.9824C93.9368 29.39 93.7285 30.2656 93.3574 30.9883C92.9863 31.7044 92.4525 32.2513 91.7559 32.6289C91.0658 33.0065 90.2227 33.1953 89.2266 33.1953C88.4714 33.1953 87.7943 33.0586 87.1953 32.7852C86.6029 32.5117 86.0983 32.1178 85.6816 31.6035C85.265 31.0827 84.946 30.4479 84.7246 29.6992C84.5098 28.9505 84.4023 28.1009 84.4023 27.1504V24.6309C84.4023 23.6803 84.513 22.8307 84.7344 22.082C84.9622 21.3333 85.2878 20.6986 85.7109 20.1777C86.1341 19.6569 86.6484 19.263 87.2539 18.9961C87.8659 18.7227 88.556 18.5859 89.3242 18.5859C90.3073 18.5859 91.1341 18.7747 91.8047 19.1523C92.4753 19.5299 92.9928 20.0833 93.3574 20.8125C93.722 21.5417 93.9336 22.4303 93.9922 23.4785H91.6289C91.5964 22.7689 91.4987 22.2025 91.3359 21.7793C91.1797 21.3496 90.9388 21.0404 90.6133 20.8516C90.2943 20.6628 89.8646 20.5684 89.3242 20.5684C88.875 20.5684 88.4876 20.653 88.1621 20.8223C87.8431 20.9915 87.5794 21.2454 87.3711 21.584C87.1693 21.916 87.0163 22.3359 86.9121 22.8438C86.8145 23.3451 86.7656 23.9342 86.7656 24.6113V27.1504C86.7656 27.8014 86.8079 28.3776 86.8926 28.8789C86.9772 29.3802 87.1139 29.8066 87.3027 30.1582C87.4915 30.5033 87.7422 30.7669 88.0547 30.9492C88.3672 31.125 88.7578 31.2129 89.2266 31.2129C89.7865 31.2129 90.2324 31.125 90.5645 30.9492C90.903 30.7734 91.1536 30.4772 91.3164 30.0605C91.4792 29.6439 91.5801 29.0775 91.6191 28.3613ZM95.5547 28.1465V27.2969C95.5547 26.4766 95.6556 25.7507 95.8574 25.1191C96.0592 24.4876 96.3457 23.9603 96.7168 23.5371C97.0944 23.1074 97.5371 22.7852 98.0449 22.5703C98.5527 22.349 99.1126 22.2383 99.7246 22.2383C100.35 22.2383 100.916 22.349 101.424 22.5703C101.938 22.7852 102.381 23.1074 102.752 23.5371C103.13 23.9603 103.419 24.4876 103.621 25.1191C103.823 25.7507 103.924 26.4766 103.924 27.2969V28.1465C103.924 28.9668 103.823 29.6927 103.621 30.3242C103.419 30.9557 103.13 31.4863 102.752 31.916C102.381 32.3392 101.941 32.6582 101.434 32.873C100.926 33.0879 100.363 33.1953 99.7441 33.1953C99.1322 33.1953 98.569 33.0879 98.0547 32.873C97.5469 32.6582 97.1042 32.3392 96.7266 31.916C96.349 31.4863 96.0592 30.9557 95.8574 30.3242C95.6556 29.6927 95.5547 28.9668 95.5547 28.1465ZM97.8301 27.2969V28.1465C97.8301 28.6738 97.8757 29.1361 97.9668 29.5332C98.0579 29.9238 98.1882 30.2493 98.3574 30.5098C98.5267 30.7702 98.7285 30.9655 98.9629 31.0957C99.1973 31.2259 99.4577 31.291 99.7441 31.291C100.063 31.291 100.34 31.2259 100.574 31.0957C100.815 30.9655 101.014 30.7702 101.17 30.5098C101.333 30.2493 101.453 29.9238 101.531 29.5332C101.609 29.1361 101.648 28.6738 101.648 28.1465V27.2969C101.648 26.776 101.603 26.3203 101.512 25.9297C101.421 25.5326 101.29 25.2038 101.121 24.9434C100.952 24.6764 100.747 24.4779 100.506 24.3477C100.271 24.2174 100.011 24.1523 99.7246 24.1523C99.4447 24.1523 99.1875 24.2174 98.9531 24.3477C98.7253 24.4779 98.5267 24.6764 98.3574 24.9434C98.1882 25.2038 98.0579 25.5326 97.9668 25.9297C97.8757 26.3203 97.8301 26.776 97.8301 27.2969ZM108.299 18V33H106.023V18H108.299ZM113.143 18V33H110.867V18H113.143ZM119.617 33.1953C118.934 33.1953 118.325 33.0944 117.791 32.8926C117.257 32.6842 116.805 32.3783 116.434 31.9746C116.062 31.5645 115.779 31.0632 115.584 30.4707C115.389 29.8717 115.291 29.1784 115.291 28.3906V27.375C115.291 26.4831 115.392 25.7148 115.594 25.0703C115.802 24.4193 116.089 23.8854 116.453 23.4688C116.818 23.0521 117.247 22.7428 117.742 22.541C118.243 22.3392 118.787 22.2383 119.373 22.2383C120.037 22.2383 120.613 22.3457 121.102 22.5605C121.59 22.7754 121.99 23.0977 122.303 23.5273C122.622 23.957 122.856 24.4876 123.006 25.1191C123.162 25.7507 123.24 26.4766 123.24 27.2969V28.4395H116.385V26.7207H120.994V26.4766C120.981 25.9948 120.923 25.5814 120.818 25.2363C120.714 24.8848 120.545 24.6178 120.311 24.4355C120.083 24.2467 119.767 24.1523 119.363 24.1523C119.07 24.1523 118.81 24.2077 118.582 24.3184C118.354 24.429 118.165 24.6081 118.016 24.8555C117.872 25.1029 117.762 25.4349 117.684 25.8516C117.605 26.2617 117.566 26.7695 117.566 27.375V28.3906C117.566 28.918 117.612 29.3639 117.703 29.7285C117.801 30.0931 117.944 30.3926 118.133 30.627C118.322 30.8548 118.549 31.0241 118.816 31.1348C119.09 31.2389 119.406 31.291 119.764 31.291C120.291 31.291 120.743 31.1934 121.121 30.998C121.505 30.7962 121.837 30.5358 122.117 30.2168L123.123 31.6133C122.934 31.8672 122.68 32.1178 122.361 32.3652C122.042 32.6061 121.655 32.8047 121.199 32.9609C120.75 33.1172 120.223 33.1953 119.617 33.1953ZM128.816 31.291C129.109 31.291 129.37 31.2292 129.598 31.1055C129.832 30.9818 130.018 30.7897 130.154 30.5293C130.291 30.2624 130.366 29.9173 130.379 29.4941H132.518C132.505 30.2428 132.332 30.8971 132 31.457C131.668 32.0104 131.225 32.4401 130.672 32.7461C130.125 33.0456 129.516 33.1953 128.846 33.1953C128.149 33.1953 127.54 33.0846 127.02 32.8633C126.505 32.6354 126.079 32.3066 125.74 31.877C125.402 31.4473 125.148 30.9264 124.979 30.3145C124.816 29.696 124.734 28.9896 124.734 28.1953V27.2383C124.734 26.4505 124.816 25.7474 124.979 25.1289C125.148 24.5104 125.402 23.9863 125.74 23.5566C126.079 23.127 126.505 22.8014 127.02 22.5801C127.534 22.3522 128.139 22.2383 128.836 22.2383C129.578 22.2383 130.219 22.3945 130.76 22.707C131.307 23.013 131.733 23.4622 132.039 24.0547C132.345 24.6471 132.505 25.373 132.518 26.2324H130.379C130.366 25.7767 130.298 25.3958 130.174 25.0898C130.05 24.7773 129.874 24.543 129.646 24.3867C129.425 24.2305 129.145 24.1523 128.807 24.1523C128.436 24.1523 128.13 24.224 127.889 24.3672C127.654 24.5039 127.472 24.7057 127.342 24.9727C127.218 25.2396 127.13 25.5651 127.078 25.9492C127.033 26.3268 127.01 26.7565 127.01 27.2383V28.1953C127.01 28.6901 127.033 29.1296 127.078 29.5137C127.124 29.8913 127.208 30.2135 127.332 30.4805C127.462 30.7474 127.648 30.9492 127.889 31.0859C128.13 31.2227 128.439 31.291 128.816 31.291ZM138.553 22.4336V24.1914H133.367V22.4336H138.553ZM134.783 19.8457H137.049V30.0508C137.049 30.3763 137.085 30.6237 137.156 30.793C137.228 30.9622 137.329 31.0762 137.459 31.1348C137.589 31.1934 137.742 31.2227 137.918 31.2227C138.048 31.2227 138.175 31.2129 138.299 31.1934C138.429 31.1673 138.523 31.1445 138.582 31.125V32.9609C138.413 33.026 138.217 33.0814 137.996 33.127C137.775 33.1725 137.508 33.1953 137.195 33.1953C136.733 33.1953 136.32 33.0977 135.955 32.9023C135.59 32.707 135.304 32.3913 135.096 31.9551C134.887 31.5189 134.783 30.9362 134.783 30.207V19.8457ZM142.732 22.4336V33H140.457V22.4336H142.732ZM140.34 19.6699C140.34 19.3053 140.451 19.0026 140.672 18.7617C140.893 18.5143 141.202 18.3906 141.6 18.3906C141.997 18.3906 142.306 18.5111 142.527 18.752C142.749 18.9928 142.859 19.2956 142.859 19.6602C142.859 20.0182 142.749 20.3177 142.527 20.5586C142.306 20.7995 141.997 20.9199 141.6 20.9199C141.202 20.9199 140.893 20.7995 140.672 20.5586C140.451 20.3177 140.34 20.0215 140.34 19.6699ZM144.832 28.1465V27.2969C144.832 26.4766 144.933 25.7507 145.135 25.1191C145.337 24.4876 145.623 23.9603 145.994 23.5371C146.372 23.1074 146.814 22.7852 147.322 22.5703C147.83 22.349 148.39 22.2383 149.002 22.2383C149.627 22.2383 150.193 22.349 150.701 22.5703C151.215 22.7852 151.658 23.1074 152.029 23.5371C152.407 23.9603 152.697 24.4876 152.898 25.1191C153.1 25.7507 153.201 26.4766 153.201 27.2969V28.1465C153.201 28.9668 153.1 29.6927 152.898 30.3242C152.697 30.9557 152.407 31.4863 152.029 31.916C151.658 32.3392 151.219 32.6582 150.711 32.873C150.203 33.0879 149.64 33.1953 149.021 33.1953C148.41 33.1953 147.846 33.0879 147.332 32.873C146.824 32.6582 146.382 32.3392 146.004 31.916C145.626 31.4863 145.337 30.9557 145.135 30.3242C144.933 29.6927 144.832 28.9668 144.832 28.1465ZM147.107 27.2969V28.1465C147.107 28.6738 147.153 29.1361 147.244 29.5332C147.335 29.9238 147.465 30.2493 147.635 30.5098C147.804 30.7702 148.006 30.9655 148.24 31.0957C148.475 31.2259 148.735 31.291 149.021 31.291C149.34 31.291 149.617 31.2259 149.852 31.0957C150.092 30.9655 150.291 30.7702 150.447 30.5098C150.61 30.2493 150.73 29.9238 150.809 29.5332C150.887 29.1361 150.926 28.6738 150.926 28.1465V27.2969C150.926 26.776 150.88 26.3203 150.789 25.9297C150.698 25.5326 150.568 25.2038 150.398 24.9434C150.229 24.6764 150.024 24.4779 149.783 24.3477C149.549 24.2174 149.288 24.1523 149.002 24.1523C148.722 24.1523 148.465 24.2174 148.23 24.3477C148.003 24.4779 147.804 24.6764 147.635 24.9434C147.465 25.2038 147.335 25.5326 147.244 25.9297C147.153 26.3203 147.107 26.776 147.107 27.2969ZM157.41 24.6895V33H155.135V22.4336H157.273L157.41 24.6895ZM157 27.3359H156.277C156.271 26.5742 156.352 25.8809 156.521 25.2559C156.691 24.6309 156.932 24.0938 157.244 23.6445C157.563 23.1953 157.941 22.8503 158.377 22.6094C158.82 22.362 159.311 22.2383 159.852 22.2383C160.268 22.2383 160.649 22.3099 160.994 22.4531C161.346 22.5898 161.645 22.8145 161.893 23.127C162.14 23.4395 162.329 23.8464 162.459 24.3477C162.596 24.849 162.664 25.4609 162.664 26.1836V33H160.389V26.1641C160.389 25.6693 160.333 25.2786 160.223 24.9922C160.118 24.6992 159.962 24.4909 159.754 24.3672C159.546 24.237 159.282 24.1719 158.963 24.1719C158.67 24.1719 158.4 24.2565 158.152 24.4258C157.911 24.5885 157.703 24.8164 157.527 25.1094C157.358 25.3958 157.228 25.7311 157.137 26.1152C157.046 26.4928 157 26.8997 157 27.3359Z" fill="white"/>
<defs>
<filter id="filter0_d_128_704" x="0" y="0" width="205" height="60" filterUnits="userSpaceOnUse" color-interpolation-filters="sRGB">
<feFlood flood-opacity="0" result="BackgroundImageFix"/>
<feColorMatrix in="SourceAlpha" type="matrix" values="0 0 0 0 0 0 0 0 0 0 0 0 0 0 0 0 0 0 127 0" result="hardAlpha"/>
<feOffset dy="4"/>
<feGaussianBlur stdDeviation="2"/>
<feComposite in2="hardAlpha" operator="out"/>
<feColorMatrix type="matrix" values="0 0 0 0 0 0 0 0 0 0 0 0 0 0 0 0 0 0 0.25 0"/>
<feBlend mode="normal" in2="BackgroundImageFix" result="effect1_dropShadow_128_704"/>
<feBlend mode="normal" in="SourceGraphic" in2="effect1_dropShadow_128_704" result="shape"/>
</filter>
<linearGradient id="paint0_linear_128_704" x1="3.41369" y1="26.7573" x2="201" y2="26.7573" gradientUnits="userSpaceOnUse">
<stop stop-color="#96FEAF"/>
<stop offset="1" stop-color="#F9DD64"/>
</linearGradient>
<linearGradient id="paint1_linear_128_704" x1="4" y1="27" x2="201" y2="27" gradientUnits="userSpaceOnUse">
<stop stop-color="#96FEAF"/>
<stop offset="1" stop-color="#F9DD64"/>
</linearGradient>
</defs>
</svg>
