<svg width="277" height="193" viewBox="0 0 277 193" fill="none" xmlns="http://www.w3.org/2000/svg">
<g filter="url(#filter0_d_128_720)">
<rect x="72" y="72" width="133" height="49" fill="url(#paint0_radial_128_720)"/>
</g>
<g filter="url(#filter1_d_128_720)">
<path d="M72 70L65 78.32V113.68L72 122H205L212 113.68V78.32L205 70H72Z" fill="url(#paint1_linear_128_720)"/>
</g>
<path d="M131.238 88.7812H133.397L136.668 99.3574L139.93 88.7812H141.932L137.557 103H135.77L131.238 88.7812ZM130.428 88.7812H132.42L132.742 97.834V103H130.428V88.7812ZM140.897 88.7812H142.898V103H140.584V97.834L140.897 88.7812ZM147.791 92.4336V103H145.516V92.4336H147.791ZM145.398 89.6699C145.398 89.3053 145.509 89.0026 145.73 88.7617C145.952 88.5143 146.261 88.3906 146.658 88.3906C147.055 88.3906 147.365 88.5111 147.586 88.752C147.807 88.9928 147.918 89.2956 147.918 89.6602C147.918 90.0182 147.807 90.3177 147.586 90.5586C147.365 90.7995 147.055 90.9199 146.658 90.9199C146.261 90.9199 145.952 90.7995 145.73 90.5586C145.509 90.3177 145.398 90.0215 145.398 89.6699ZM152.469 94.6895V103H150.193V92.4336H152.332L152.469 94.6895ZM152.059 97.3359H151.336C151.329 96.5742 151.411 95.8809 151.58 95.2559C151.749 94.6309 151.99 94.0938 152.303 93.6445C152.622 93.1953 152.999 92.8503 153.436 92.6094C153.878 92.362 154.37 92.2383 154.91 92.2383C155.327 92.2383 155.708 92.3099 156.053 92.4531C156.404 92.5898 156.704 92.8145 156.951 93.127C157.199 93.4395 157.387 93.8464 157.518 94.3477C157.654 94.849 157.723 95.4609 157.723 96.1836V103H155.447V96.1641C155.447 95.6693 155.392 95.2786 155.281 94.9922C155.177 94.6992 155.021 94.4909 154.813 94.3672C154.604 94.237 154.341 94.1719 154.022 94.1719C153.729 94.1719 153.458 94.2565 153.211 94.4258C152.97 94.5885 152.762 94.8164 152.586 95.1094C152.417 95.3958 152.286 95.7311 152.195 96.1152C152.104 96.4928 152.059 96.8997 152.059 97.3359ZM164.275 92.4336V94.1914H159.09V92.4336H164.275ZM160.506 89.8457H162.772V100.051C162.772 100.376 162.807 100.624 162.879 100.793C162.951 100.962 163.051 101.076 163.182 101.135C163.312 101.193 163.465 101.223 163.641 101.223C163.771 101.223 163.898 101.213 164.022 101.193C164.152 101.167 164.246 101.145 164.305 101.125V102.961C164.135 103.026 163.94 103.081 163.719 103.127C163.497 103.173 163.23 103.195 162.918 103.195C162.456 103.195 162.042 103.098 161.678 102.902C161.313 102.707 161.027 102.391 160.818 101.955C160.61 101.519 160.506 100.936 160.506 100.207V89.8457Z" fill="#646D4C"/>
<path d="M113.41 92.9463V92.4585H116.337V92.9463H123.234V102.044C123.234 104.79 121 107.024 118.254 107.024H116.093V107.512H115.117V107.024H112.956C110.21 107.024 107.976 104.79 107.976 102.044V92.9463H113.41ZM114.239 102.937H116.971L116.059 100.122L116.39 99.9219C116.863 99.639 117.151 99.1415 117.151 98.5902C117.151 97.7366 116.454 97.039 115.6 97.039C114.746 97.039 114.049 97.7366 114.049 98.5902C114.049 99.1415 114.332 99.639 114.81 99.9219L115.141 100.122L114.239 102.937Z" fill="#FFE97B"/>
<path d="M115.605 86.0049C117.356 86.0049 118.776 87.4293 118.776 89.1756V91.9707H119.805V89.1756C119.805 86.8585 117.922 84.9756 115.605 84.9756C113.288 84.9756 111.405 86.8585 111.405 89.1756V91.9707H112.434V89.1756C112.434 87.4244 113.854 86.0049 115.605 86.0049Z" fill="#55BCC9"/>
<path d="M112.898 103.912L113.99 100.532C113.42 100.054 113.078 99.3415 113.078 98.5902C113.078 97.1951 114.21 96.0634 115.605 96.0634C117 96.0634 118.132 97.1951 118.132 98.5902C118.132 99.3415 117.79 100.054 117.22 100.532L118.312 103.912H112.898ZM115.605 97.0341C114.751 97.0341 114.054 97.7317 114.054 98.5854C114.054 99.1366 114.337 99.6341 114.815 99.9171L115.146 100.117L114.234 102.932H116.971L116.059 100.117L116.39 99.9171C116.863 99.6341 117.151 99.1366 117.151 98.5854C117.156 97.7317 116.459 97.0341 115.605 97.0341Z" fill="#4D5152"/>
<path d="M110.429 91.9707V89.1756C110.429 86.322 112.751 84 115.605 84C118.459 84 120.78 86.322 120.78 89.1756V91.9707H124.21V102.044C124.21 105.327 121.537 108 118.254 108H116.093V107.024H118.254C121 107.024 123.234 104.79 123.234 102.044V92.9463H116.337V91.9707H117.8V89.1756C117.8 87.9659 116.815 86.9805 115.605 86.9805C114.395 86.9805 113.41 87.9659 113.41 89.1756V92.9463H107.98V102.044C107.98 104.79 110.215 107.024 112.961 107.024H115.117V108H112.956C109.673 108 107 105.327 107 102.044V91.9707H110.429ZM111.405 91.9707H112.434V89.1756C112.434 87.4244 113.859 86.0049 115.605 86.0049C117.356 86.0049 118.776 87.4293 118.776 89.1756V91.9707H119.805V89.1756C119.805 86.8585 117.922 84.9756 115.605 84.9756C113.288 84.9756 111.405 86.8585 111.405 89.1756V91.9707Z" fill="#58667F"/>
<path d="M114.385 91.9707H115.361V92.9463H114.385V91.9707Z" fill="#4D5152"/>
<defs>
<filter id="filter0_d_128_720" x="0" y="0" width="277" height="193" filterUnits="userSpaceOnUse" color-interpolation-filters="sRGB">
<feFlood flood-opacity="0" result="BackgroundImageFix"/>
<feColorMatrix in="SourceAlpha" type="matrix" values="0 0 0 0 0 0 0 0 0 0 0 0 0 0 0 0 0 0 127 0" result="hardAlpha"/>
<feMorphology radius="2" operator="dilate" in="SourceAlpha" result="effect1_dropShadow_128_720"/>
<feOffset/>
<feGaussianBlur stdDeviation="35"/>
<feComposite in2="hardAlpha" operator="out"/>
<feColorMatrix type="matrix" values="0 0 0 0 1 0 0 0 0 0.862745 0 0 0 0 0.380392 0 0 0 0.7 0"/>
<feBlend mode="normal" in2="BackgroundImageFix" result="effect1_dropShadow_128_720"/>
<feBlend mode="normal" in="SourceGraphic" in2="effect1_dropShadow_128_720" result="shape"/>
</filter>
<filter id="filter1_d_128_720" x="61" y="70" width="155" height="60" filterUnits="userSpaceOnUse" color-interpolation-filters="sRGB">
<feFlood flood-opacity="0" result="BackgroundImageFix"/>
<feColorMatrix in="SourceAlpha" type="matrix" values="0 0 0 0 0 0 0 0 0 0 0 0 0 0 0 0 0 0 127 0" result="hardAlpha"/>
<feOffset dy="4"/>
<feGaussianBlur stdDeviation="2"/>
<feComposite in2="hardAlpha" operator="out"/>
<feColorMatrix type="matrix" values="0 0 0 0 0 0 0 0 0 0 0 0 0 0 0 0 0 0 0.25 0"/>
<feBlend mode="normal" in2="BackgroundImageFix" result="effect1_dropShadow_128_720"/>
<feBlend mode="normal" in="SourceGraphic" in2="effect1_dropShadow_128_720" result="shape"/>
</filter>
<radialGradient id="paint0_radial_128_720" cx="0" cy="0" r="1" gradientUnits="userSpaceOnUse" gradientTransform="translate(205 97) rotate(-180) scale(133 417.327)">
<stop stop-color="#FFDC61"/>
<stop offset="1" stop-color="#94FFB2"/>
</radialGradient>
<linearGradient id="paint1_linear_128_720" x1="64.5625" y1="96.7573" x2="212" y2="96.7573" gradientUnits="userSpaceOnUse">
<stop stop-color="#96FEAF"/>
<stop offset="1" stop-color="#FCDD63"/>
</linearGradient>
</defs>
</svg>
